<svg width="39" height="39" viewBox="0 0 39 39" fill="none" xmlns="http://www.w3.org/2000/svg">
<path fill-rule="evenodd" clip-rule="evenodd" d="M33.3611 7.36112C33.5764 7.13009 33.6936 6.82451 33.688 6.50877C33.6825 6.19303 33.5546 5.89178 33.3313 5.66849C33.108 5.44519 32.8067 5.31728 32.491 5.31171C32.1752 5.30614 31.8697 5.42334 31.6386 5.63862L5.63863 31.6386C5.51889 31.7502 5.42285 31.8847 5.35624 32.0342C5.28963 32.1837 5.25381 32.3451 5.25092 32.5088C5.24803 32.6724 5.27814 32.835 5.33943 32.9867C5.40073 33.1385 5.49197 33.2763 5.6077 33.3921C5.72343 33.5078 5.86128 33.599 6.01304 33.6603C6.16479 33.7216 6.32734 33.7517 6.49098 33.7488C6.65462 33.7459 6.81601 33.7101 6.96551 33.6435C7.11501 33.5769 7.24956 33.4809 7.36113 33.3611L12.293 28.4292C14.4348 29.4172 16.8869 30.0624 19.4999 30.0624C23.7541 30.0624 27.5794 28.3545 30.3354 26.2387C31.7166 25.1792 32.8493 24.0027 33.6423 22.8587C34.4223 21.7342 34.9374 20.5545 34.9374 19.4999C34.9374 18.4452 34.4223 17.2655 33.6423 16.1426C32.8493 14.997 31.7166 13.8205 30.3354 12.7626C29.8966 12.4246 29.4286 12.0964 28.9379 11.786L33.3611 7.36112ZM24.5861 16.1394L22.7986 17.9236C23.1245 18.6059 23.2308 19.3724 23.1029 20.1176C22.9751 20.8628 22.6193 21.5501 22.0847 22.0847C21.5501 22.6193 20.8628 22.9751 20.1176 23.1029C19.3724 23.2308 18.6059 23.1245 17.9236 22.7986L16.1361 24.5861C17.308 25.362 18.712 25.709 20.1103 25.5683C21.5087 25.4276 22.8154 24.8079 23.8092 23.8141C24.803 22.8203 25.4227 21.5136 25.5634 20.1152C25.7041 18.7168 25.3571 17.3128 24.5813 16.141" fill="#5F7C8D"/>
<path d="M20.5887 13.5038C20.6556 13.5163 20.7245 13.5125 20.7896 13.4927C20.8546 13.4729 20.914 13.4376 20.9625 13.39L24.1312 10.2212C24.1805 10.1728 24.2162 10.1123 24.2347 10.0457C24.2533 9.97916 24.254 9.9089 24.2369 9.84196C24.2198 9.77502 24.1855 9.71374 24.1373 9.66424C24.0891 9.61474 24.0287 9.57875 23.9622 9.55987C22.51 9.15056 21.0088 8.94118 19.5 8.9375C15.2457 8.9375 11.4205 10.6454 8.6645 12.7611C7.28325 13.8206 6.15062 14.9971 5.356 16.1411C4.576 17.2656 4.0625 18.4454 4.0625 19.5C4.0625 20.5546 4.57762 21.7344 5.356 22.8573C6.12927 23.9425 7.04288 24.9206 8.073 25.766C8.15008 25.8297 8.24825 25.8622 8.34812 25.8571C8.448 25.852 8.54233 25.8096 8.6125 25.7384L13.39 20.9609C13.4376 20.9123 13.4729 20.853 13.4927 20.7879C13.5125 20.7229 13.5163 20.654 13.5037 20.5871C13.3277 19.618 13.3891 18.6206 13.6829 17.6804C13.9766 16.7402 14.4939 15.8853 15.1904 15.1888C15.8869 14.4923 16.7419 13.975 17.682 13.6812C18.6222 13.3875 19.6196 13.326 20.5887 13.5021" fill="#5F7C8D"/>
</svg>
