<svg width="48" height="48" viewBox="0 0 48 48" fill="none" xmlns="http://www.w3.org/2000/svg">
<g clip-path="url(#clip0_1030_30)">
<path d="M26.3218 38.0899H22.6782C22.5159 38.0899 22.3601 38.0266 22.2453 37.9137C22.1305 37.8009 22.066 37.6479 22.066 37.4883V8.42943C22.066 7.795 22.3225 7.18655 22.7789 6.73793C23.2354 6.28932 23.8545 6.03729 24.5 6.03729C25.1456 6.03729 25.7646 6.28932 26.2211 6.73793C26.6776 7.18655 26.934 7.795 26.934 8.42943V37.4889C26.9338 37.6484 26.8693 37.8012 26.7545 37.9139C26.6397 38.0266 26.4841 38.0899 26.3218 38.0899ZM23.2904 36.8866H25.7097V8.42943C25.7097 8.11413 25.5822 7.81174 25.3554 7.58879C25.1285 7.36584 24.8208 7.24058 24.5 7.24058C24.1792 7.24058 23.8715 7.36584 23.6447 7.58879C23.4178 7.81174 23.2904 8.11413 23.2904 8.42943V36.8866Z" fill="#295C7A"/>
<path d="M9.74667 14.103H7.6451C7.14649 14.0942 6.67132 13.8933 6.32186 13.5437C5.97241 13.194 5.77661 12.7235 5.77661 12.2334C5.77661 11.7432 5.97241 11.2727 6.32186 10.923C6.67132 10.5734 7.14649 10.3725 7.6451 10.3637H9.44855C9.61091 10.3637 9.76661 10.4271 9.88142 10.54C9.99622 10.6528 10.0607 10.8058 10.0607 10.9654C10.0607 11.125 9.99622 11.278 9.88142 11.3908C9.76661 11.5036 9.61091 11.567 9.44855 11.567H7.6451C7.46882 11.5722 7.30153 11.6447 7.17871 11.7691C7.05589 11.8935 6.98719 12.06 6.98719 12.2334C6.98719 12.4067 7.05589 12.5732 7.17871 12.6976C7.30153 12.822 7.46882 12.8945 7.6451 12.8997H9.74667C9.90903 12.8997 10.0647 12.9631 10.1795 13.0759C10.2943 13.1887 10.3588 13.3418 10.3588 13.5013C10.3588 13.6609 10.2943 13.8139 10.1795 13.9267C10.0647 14.0396 9.90903 14.103 9.74667 14.103Z" fill="#295C7A"/>
<path d="M22.6781 14.103H13.4497C13.2873 14.103 13.1316 14.0396 13.0168 13.9267C12.902 13.8139 12.8375 13.6609 12.8375 13.5013C12.8375 13.3418 12.902 13.1887 13.0168 13.0759C13.1316 12.9631 13.2873 12.8997 13.4497 12.8997H22.066V11.567H13.7472C13.5848 11.567 13.4291 11.5036 13.3143 11.3908C13.1995 11.278 13.135 11.125 13.135 10.9654C13.135 10.8058 13.1995 10.6528 13.3143 10.54C13.4291 10.4271 13.5848 10.3637 13.7472 10.3637H22.6781C22.8405 10.3637 22.9962 10.4271 23.111 10.54C23.2258 10.6528 23.2903 10.8058 23.2903 10.9654V13.5013C23.2903 13.6609 23.2258 13.8139 23.111 13.9267C22.9962 14.0396 22.8405 14.103 22.6781 14.103Z" fill="#295C7A"/>
<path d="M35.4167 14.103H26.3218C26.1594 14.103 26.0037 14.0396 25.8889 13.9267C25.7741 13.8139 25.7096 13.6609 25.7096 13.5013V10.9654C25.7096 10.8058 25.7741 10.6528 25.8889 10.54C26.0037 10.4271 26.1594 10.3637 26.3218 10.3637H35.1192C35.2816 10.3637 35.4373 10.4271 35.5521 10.54C35.6669 10.6528 35.7314 10.8058 35.7314 10.9654C35.7314 11.125 35.6669 11.278 35.5521 11.3908C35.4373 11.5036 35.2816 11.567 35.1192 11.567H26.9339V12.8997H35.4167C35.5791 12.8997 35.7348 12.9631 35.8496 13.0759C35.9644 13.1887 36.0289 13.3418 36.0289 13.5013C36.0289 13.6609 35.9644 13.8139 35.8496 13.9267C35.7348 14.0396 35.5791 14.103 35.4167 14.103Z" fill="#295C7A"/>
<path d="M41.3486 14.103H39.2532C39.0908 14.103 38.9351 14.0396 38.8203 13.9267C38.7055 13.8139 38.641 13.6609 38.641 13.5013C38.641 13.3418 38.7055 13.1887 38.8203 13.0759C38.9351 12.9631 39.0908 12.8997 39.2532 12.8997H41.3486C41.5249 12.8945 41.6922 12.822 41.815 12.6976C41.9378 12.5732 42.0065 12.4067 42.0065 12.2334C42.0065 12.06 41.9378 11.8935 41.815 11.7691C41.6922 11.6447 41.5249 11.5722 41.3486 11.567H39.555C39.3926 11.567 39.2369 11.5036 39.1221 11.3908C39.0073 11.278 38.9428 11.125 38.9428 10.9654C38.9428 10.8058 39.0073 10.6528 39.1221 10.54C39.2369 10.4271 39.3926 10.3637 39.555 10.3637H41.3486C41.8472 10.3725 42.3224 10.5734 42.6719 10.923C43.0213 11.2727 43.2171 11.7432 43.2171 12.2334C43.2171 12.7235 43.0213 13.194 42.6719 13.5437C42.3224 13.8933 41.8472 14.0942 41.3486 14.103Z" fill="#295C7A"/>
<path d="M32.2531 41.9622H16.7469C16.6539 41.9621 16.5622 41.9413 16.4787 41.9012C16.3952 41.8612 16.3221 41.803 16.2649 41.731C16.2076 41.6591 16.1678 41.5753 16.1485 41.486C16.1291 41.3966 16.1307 41.3042 16.1531 41.2155C16.4055 40.0257 17.0555 38.953 17.9997 38.168C18.9439 37.3831 20.1281 36.931 21.3638 36.8837H27.6361C28.8719 36.931 30.056 37.3831 31.0002 38.168C31.9444 38.953 32.5945 40.0257 32.8469 41.2155C32.8693 41.3042 32.8708 41.3966 32.8515 41.486C32.8321 41.5753 32.7923 41.6591 32.7351 41.731C32.6778 41.803 32.6047 41.8612 32.5212 41.9012C32.4377 41.9413 32.346 41.9621 32.2531 41.9622ZM17.5935 40.7589H31.4064C31.115 39.9987 30.6018 39.3399 29.9311 38.8652C29.2604 38.3904 28.4621 38.1207 27.6361 38.09H21.3638C20.5379 38.1207 19.7395 38.3904 19.0688 38.8652C18.3981 39.3399 17.8849 39.9987 17.5935 40.7589Z" fill="#295C7A"/>
<path d="M33.9108 41.9621H15.0891C14.9267 41.9621 14.771 41.8987 14.6562 41.7859C14.5414 41.673 14.4769 41.52 14.4769 41.3604C14.4769 41.2009 14.5414 41.0478 14.6562 40.935C14.771 40.8222 14.9267 40.7588 15.0891 40.7588H33.9108C34.0731 40.7588 34.2289 40.8222 34.3437 40.935C34.4585 41.0478 34.523 41.2009 34.523 41.3604C34.523 41.52 34.4585 41.673 34.3437 41.7859C34.2289 41.8987 34.0731 41.9621 33.9108 41.9621Z" fill="#295C7A"/>
<path d="M45.3136 29.1885H29.4946C29.3921 29.1886 29.2912 29.1634 29.2012 29.1152C29.1113 29.067 29.035 28.9974 28.9795 28.9128C28.924 28.8281 28.891 28.7311 28.8836 28.6306C28.8761 28.5302 28.8945 28.4295 28.9369 28.3378L35.6585 13.7937C35.6916 13.7215 35.7388 13.6565 35.7976 13.6023C35.8563 13.5481 35.9253 13.5059 36.0006 13.478C36.076 13.4501 36.1562 13.437 36.2367 13.4396C36.3172 13.4422 36.3964 13.4604 36.4697 13.4931C36.543 13.5259 36.6091 13.5725 36.664 13.6303C36.719 13.6882 36.7618 13.7561 36.79 13.8303C36.8182 13.9044 36.8312 13.9833 36.8283 14.0624C36.8255 14.1415 36.8067 14.2193 36.7732 14.2912L30.4447 27.9853H44.3611L38.038 14.2912C38.0048 14.2192 37.9863 14.1415 37.9837 14.0626C37.981 13.9836 37.9942 13.9049 38.0226 13.8309C38.0509 13.7569 38.0937 13.6891 38.1487 13.6315C38.2036 13.5738 38.2696 13.5273 38.3428 13.4946C38.4161 13.462 38.4951 13.4439 38.5755 13.4413C38.6559 13.4387 38.736 13.4517 38.8112 13.4795C38.8865 13.5073 38.9555 13.5494 39.0142 13.6034C39.0729 13.6574 39.1202 13.7223 39.1534 13.7943L45.8682 28.3384C45.9104 28.4298 45.9286 28.5302 45.9213 28.6303C45.9139 28.7304 45.8812 28.8271 45.826 28.9117C45.7709 28.9962 45.6951 29.0658 45.6056 29.1141C45.5161 29.1625 45.4157 29.1881 45.3136 29.1885Z" fill="#295C7A"/>
<path d="M37.4669 36.8625H37.3395C32.4379 36.8625 28.88 33.3826 28.88 28.5875C28.88 28.4279 28.9445 28.2749 29.0593 28.162C29.1741 28.0492 29.3298 27.9858 29.4922 27.9858H45.3136C45.476 27.9858 45.6317 28.0492 45.7465 28.162C45.8613 28.2749 45.9258 28.4279 45.9258 28.5875C45.9258 33.3856 42.3679 36.8625 37.4669 36.8625ZM30.1258 29.1891C30.3988 33.0288 33.2876 35.6592 37.3395 35.6592H37.4669C41.5182 35.6592 44.4076 33.0288 44.68 29.1891H30.1258Z" fill="#295C7A"/>
<path d="M37.4032 14.961C36.808 14.9611 36.226 14.7877 35.731 14.4628C35.2361 14.1378 34.8502 13.6759 34.6224 13.1354C34.3945 12.5949 34.3349 12.0002 34.451 11.4264C34.5671 10.8526 34.8537 10.3256 35.2746 9.91188C35.6955 9.4982 36.2318 9.2165 36.8156 9.1024C37.3995 8.98829 38.0046 9.04692 38.5545 9.27085C39.1045 9.49478 39.5745 9.87397 39.9051 10.3605C40.2357 10.8469 40.4121 11.4189 40.412 12.0039C40.411 12.7879 40.0937 13.5394 39.5297 14.0938C38.9656 14.6482 38.2009 14.96 37.4032 14.961ZM37.4032 10.2495C37.0501 10.2494 36.7049 10.3522 36.4113 10.5449C36.1177 10.7376 35.8888 11.0115 35.7536 11.3321C35.6184 11.6527 35.5829 12.0054 35.6517 12.3458C35.7206 12.6861 35.8905 12.9988 36.1401 13.2442C36.3898 13.4896 36.7078 13.6568 37.0541 13.7245C37.4004 13.7923 37.7594 13.7576 38.0856 13.6248C38.4118 13.492 38.6906 13.2672 38.8868 12.9786C39.083 12.6901 39.1877 12.3509 39.1877 12.0039C39.1872 11.5388 38.999 11.093 38.6645 10.7641C38.33 10.4352 37.8764 10.2501 37.4032 10.2495Z" fill="#295C7A"/>
<path d="M19.5048 29.1886H3.68634C3.58391 29.1886 3.48313 29.1633 3.39323 29.1151C3.30332 29.0668 3.22716 28.9972 3.17173 28.9126C3.1163 28.8279 3.08337 28.7309 3.07595 28.6305C3.06853 28.5301 3.08686 28.4295 3.12927 28.3379L9.85209 13.7937C9.91923 13.6484 10.0424 13.5352 10.1944 13.479C10.3465 13.4229 10.515 13.4284 10.6629 13.4944C10.8108 13.5604 10.926 13.6814 10.9831 13.8309C11.0402 13.9803 11.0346 14.1459 10.9675 14.2913L4.63887 27.9853H18.5553L12.2322 14.2913C12.197 14.2191 12.1769 14.1407 12.1729 14.0608C12.169 13.9808 12.1813 13.9009 12.2092 13.8257C12.2371 13.7505 12.2799 13.6815 12.3353 13.6227C12.3906 13.564 12.4573 13.5167 12.5315 13.4837C12.6057 13.4506 12.6858 13.4324 12.7672 13.4302C12.8487 13.4279 12.9297 13.4417 13.0057 13.4706C13.0816 13.4995 13.1509 13.5431 13.2095 13.5987C13.2681 13.6543 13.3148 13.7208 13.347 13.7943L20.0624 28.3385C20.1047 28.4301 20.1229 28.5308 20.1154 28.6311C20.1079 28.7315 20.0749 28.8284 20.0194 28.913C19.9639 28.9976 19.8877 29.0671 19.7978 29.1153C19.7079 29.1634 19.6071 29.1886 19.5048 29.1886Z" fill="#295C7A"/>
<path d="M11.6604 36.8625H11.533C6.63202 36.8625 3.0741 33.3856 3.0741 28.5875C3.0741 28.4279 3.13859 28.2749 3.2534 28.162C3.3682 28.0492 3.52391 27.9858 3.68626 27.9858H19.5077C19.6701 27.9858 19.8258 28.0492 19.9406 28.162C20.0554 28.2749 20.1199 28.4279 20.1199 28.5875C20.1199 33.3856 16.562 36.8625 11.6604 36.8625ZM4.31986 29.1891C4.59227 33.0288 7.48171 35.6592 11.533 35.6592H11.6604C15.7123 35.6592 18.6011 33.0288 18.8741 29.1891H4.31986Z" fill="#295C7A"/>
<path d="M11.5967 14.961C11.0015 14.961 10.4196 14.7875 9.92469 14.4625C9.42978 14.1374 9.04406 13.6755 8.8163 13.135C8.58854 12.5945 8.52898 11.9998 8.64515 11.426C8.76132 10.8523 9.048 10.3253 9.46894 9.91167C9.88987 9.49805 10.4262 9.21641 11.01 9.10235C11.5938 8.9883 12.1989 9.04696 12.7488 9.27091C13.2987 9.49486 13.7686 9.87405 14.0992 10.3605C14.4298 10.847 14.6062 11.4189 14.6061 12.0039C14.6051 12.788 14.2877 13.5396 13.7236 14.094C13.1594 14.6484 12.3945 14.9602 11.5967 14.961ZM11.5967 10.2495C11.2436 10.2495 10.8985 10.3524 10.605 10.5452C10.3114 10.7379 10.0826 11.0119 9.9475 11.3325C9.81239 11.6531 9.77704 12.0058 9.84592 12.3461C9.91479 12.6865 10.0848 12.9991 10.3345 13.2444C10.5841 13.4898 10.9022 13.6569 11.2484 13.7246C11.5947 13.7923 11.9536 13.7575 12.2798 13.6247C12.606 13.4919 12.8848 13.2671 13.0809 12.9786C13.2771 12.6901 13.3818 12.3509 13.3818 12.0039C13.3813 11.5387 13.1931 11.0928 12.8584 10.7639C12.5237 10.435 12.07 10.25 11.5967 10.2495Z" fill="#295C7A"/>
</g>
<defs>
<clipPath id="clip0_1030_30">
<rect width="43" height="36" fill="white" transform="translate(3 6)"/>
</clipPath>
</defs>
</svg>
