<svg width="38" height="34" viewBox="0 0 38 34" fill="none" xmlns="http://www.w3.org/2000/svg">
<path d="M34.5253 14.2251H33.25V14.1663H19V19.833H27.9482C26.6427 23.1317 23.1348 25.4997 19 25.4997C13.7536 25.4997 9.49996 21.6938 9.49996 16.9997C9.49996 12.3055 13.7536 8.49967 19 8.49967C21.4217 8.49967 23.6249 9.31709 25.3024 10.6523L29.7809 6.64526C26.953 4.28722 23.1705 2.83301 19 2.83301C10.256 2.83301 3.16663 9.17613 3.16663 16.9997C3.16663 24.8232 10.256 31.1663 19 31.1663C27.7439 31.1663 34.8333 24.8232 34.8333 16.9997C34.8333 16.0498 34.724 15.1226 34.5253 14.2251Z" fill="#FFC107"/>
<path d="M4.99231 10.4058L10.1944 13.8193C11.6019 10.7012 15.0109 8.49967 19.0001 8.49967C21.4218 8.49967 23.625 9.31709 25.3025 10.6523L29.781 6.64526C26.9531 4.28722 23.1706 2.83301 19.0001 2.83301C12.9185 2.83301 7.64439 5.90505 4.99231 10.4058Z" fill="#FF3D00"/>
<path d="M19 31.1672C23.0898 31.1672 26.8059 29.7668 29.6155 27.4895L24.7151 23.7792C23.072 24.8973 21.0643 25.5019 19 25.5005C14.8818 25.5005 11.385 23.1509 10.0677 19.8721L4.90442 23.4314C7.52484 28.0193 12.8464 31.1672 19 31.1672Z" fill="#4CAF50"/>
<path d="M34.5254 14.2258H33.25V14.167H19V19.8337H27.9482C27.3237 21.4036 26.1989 22.7755 24.7127 23.7798L24.715 23.7784L29.6155 27.4886C29.2687 27.7705 34.8333 24.0837 34.8333 17.0003C34.8333 16.0505 34.7241 15.1232 34.5254 14.2258Z" fill="#1976D2"/>
</svg>
