<svg width="24" height="30" viewBox="0 0 24 30" fill="none" xmlns="http://www.w3.org/2000/svg">
<g clip-path="url(#clip0_1041_75)">
<path d="M11.9999 17.9999C15.3089 17.9999 17.9999 15.3089 17.9999 11.9999C17.9999 8.69097 15.3089 6 11.9999 6C8.69097 6 6 8.69097 6 11.9999C6 15.3089 8.69097 17.9999 11.9999 17.9999ZM11.9999 8.99997C13.6544 8.99997 14.9999 10.3455 14.9999 11.9999C14.9999 13.6544 13.6544 14.9999 11.9999 14.9999C10.3455 14.9999 8.99997 13.6544 8.99997 11.9999C8.99997 10.3455 10.3455 8.99997 11.9999 8.99997Z" fill="#8EC2F2"/>
<path d="M11.13 29.7207C11.3839 29.902 11.688 29.9994 12 29.9994C12.312 29.9994 12.6161 29.902 12.87 29.7207C13.326 29.3982 24.0434 21.6598 23.9999 11.9999C23.9999 5.38344 18.6164 0 12 0C5.38357 0 0.000132055 5.38344 0.000132055 11.9924C-0.0433675 21.6598 10.674 29.3982 11.13 29.7207ZM12 2.99997C16.9634 2.99997 20.9999 7.03642 20.9999 12.0074C21.0314 18.6643 14.418 24.6417 12 26.6022C9.58353 24.6402 2.9686 18.6613 3.0001 11.9999C3.0001 7.03642 7.03655 2.99997 12 2.99997Z" fill="#8EC2F2"/>
</g>
<defs>
<clipPath id="clip0_1041_75">
<rect width="24" height="29.9997" fill="white"/>
</clipPath>
</defs>
</svg>
