<svg width="48" height="48" viewBox="0 0 48 48" fill="none" xmlns="http://www.w3.org/2000/svg">
<g clip-path="url(#clip0_1030_12)">
<path d="M12.1214 16.9828C11.7862 16.6477 11.2414 16.6477 10.9063 16.9828C10.5703 17.3189 10.5703 17.8628 10.9063 18.198C11.2415 18.534 11.7863 18.534 12.1214 18.198C12.4573 17.8628 12.4573 17.3189 12.1214 16.9828Z" fill="#295C7A"/>
<path d="M23.7593 40.4757C24.1382 39.9625 24.343 39.3442 24.343 38.6941C24.343 37.0356 22.9938 35.6863 21.3353 35.6863H6.72639C5.92262 35.6863 5.16731 35.9992 4.59952 36.5671C4.03148 37.135 3.71866 37.8903 3.71866 38.6941C3.71866 39.36 3.9366 39.9758 4.30433 40.4747C2.93595 41.1942 2 42.6293 2 44.2797V45.1391C2 45.6138 2.38483 45.9985 2.85938 45.9985H25.2023C25.6768 45.9985 26.0616 45.6138 26.0616 45.1391V44.2797C26.0616 42.6301 25.1266 41.1955 23.7593 40.4757ZM5.81477 37.7823C6.05805 37.5389 6.38187 37.4049 6.72639 37.4049H21.3353C22.046 37.4049 22.6242 37.9832 22.6242 38.6939C22.6242 39.0385 22.4902 39.3622 22.2468 39.6056C22.0035 39.849 21.6797 39.983 21.3352 39.983H6.72639C6.0156 39.983 5.43741 39.4047 5.43741 38.694C5.43741 38.3495 5.57139 38.0256 5.81477 37.7823ZM3.71866 44.2797C3.71866 42.8583 4.87521 41.7017 6.2967 41.7017H6.72639H21.3353H21.7649C23.1864 41.7017 24.343 42.8583 24.343 44.2797H3.71866Z" fill="#295C7A"/>
<path d="M45.2002 38.1044C44.9084 37.6522 44.5601 37.2522 44.1651 36.9157L40.1497 33.4135C40.1184 33.3664 40.0821 33.3217 40.0406 33.2802C39.9708 33.2105 39.8918 33.1561 39.8077 33.1153L37.3794 30.9974L26.1396 21.1927C26.5997 20.7117 26.8531 20.0827 26.8531 19.4139C26.8531 18.7248 26.5849 18.0773 26.0973 17.5899C25.8847 17.3775 25.6431 17.2105 25.3848 17.0883L26.4247 16.0484C26.7153 16.1257 27.0139 16.1652 27.3128 16.1652C28.1929 16.1651 29.0731 15.8301 29.7431 15.1602C30.3926 14.5107 30.7502 13.6475 30.7502 12.7294C30.7502 11.8113 30.3926 10.9481 29.7431 10.2987L22.4515 3.00722C21.8021 2.35779 20.9388 2.00012 20.0204 2.00012C19.1025 2.00012 18.2395 2.35779 17.5901 3.00722C16.6926 3.90475 16.3971 5.17912 16.7019 6.3257L6.32707 16.7004C6.04038 16.6242 5.74209 16.584 5.43735 16.584C4.51885 16.584 3.65596 16.9414 3.00704 17.5902C1.66676 18.9305 1.66676 21.1113 3.00704 22.4517L10.2986 29.7433C10.9688 30.4135 11.8491 30.7485 12.7293 30.7485C13.6097 30.7485 14.4899 30.4135 15.1602 29.7433C16.0577 28.8457 16.3531 27.5714 16.0484 26.4248L17.0861 25.3871C17.2108 25.6475 17.38 25.8877 17.5902 26.0979C18.0771 26.5848 18.7245 26.853 19.4134 26.853C20.0815 26.853 20.7103 26.6001 21.1919 26.1405L33.1635 39.8951C33.1965 39.9467 33.235 39.9958 33.2801 40.0408C33.2955 40.0562 33.3118 40.0702 33.328 40.0841L36.8954 44.1828C36.9841 44.2875 37.0789 44.3904 37.1773 44.4888C38.157 45.4683 39.4512 45.9998 40.8098 45.9998C41.0493 45.9998 41.2911 45.9833 41.5332 45.9498C43.1513 45.7258 44.5497 44.7578 45.3698 43.2936C46.2681 41.6889 46.2012 39.6516 45.2002 38.1044ZM18.8055 4.22255C19.1303 3.89779 19.5619 3.71887 20.0205 3.71887C20.4798 3.71887 20.9116 3.89779 21.2363 4.22255L28.5279 11.5141C28.8527 11.8388 29.0315 12.2705 29.0315 12.7295C29.0315 13.1885 28.8527 13.6202 28.5278 13.9449C27.8579 14.615 26.7677 14.615 26.0978 13.9449L18.806 6.65304C18.8058 6.65286 18.8057 6.65278 18.8055 6.65261C18.1355 5.98264 18.1355 4.89252 18.8055 4.22255ZM13.9448 28.528C13.2747 29.1981 12.184 29.1982 11.5139 28.528L4.22237 21.2365C3.55214 20.5662 3.55214 19.4759 4.22237 18.8055C4.54653 18.4813 4.9781 18.3027 5.43735 18.3027C5.89652 18.3027 6.32784 18.4812 6.65191 18.8052L13.9447 26.098C14.6149 26.7679 14.6149 27.8581 13.9448 28.528ZM17.563 22.4797L15.1601 24.8827L7.86775 17.5904L17.5901 7.86785L24.8823 15.1602L22.4751 17.5675C22.4672 17.5749 22.4596 17.5821 22.4513 17.5903L17.5926 22.4491C17.5826 22.459 17.5728 22.4693 17.563 22.4797ZM20.6314 24.2725C20.6297 24.2742 20.6281 24.2758 20.6264 24.2775L20.0212 24.8827C19.8589 25.0449 19.6431 25.1343 19.4133 25.1343C19.1836 25.1343 18.9677 25.0449 18.8054 24.8826C18.6429 24.7202 18.5535 24.5041 18.5535 24.2743C18.5535 24.0493 18.6393 23.8376 18.7951 23.6779L23.6765 18.7966C24.011 18.4712 24.5519 18.4753 24.8825 18.8055C25.0449 18.968 25.1344 19.184 25.1344 19.4139C25.1344 19.6436 25.0452 19.8591 24.8824 20.0214L24.2808 20.623C24.2767 20.6271 24.2725 20.6312 24.2685 20.6353L20.6314 24.2725ZM22.411 24.9234L24.9227 22.4118L35.5567 31.6875L31.6763 35.568L22.411 24.9234ZM32.8073 36.8675L36.8549 32.8199L38.1532 33.9523L33.9384 38.1672L32.8073 36.8675ZM43.8702 42.454C43.3156 43.4443 42.3779 44.0978 41.2976 44.2473C40.2198 44.3965 39.1608 44.0415 38.3923 43.2734C38.3262 43.2074 38.263 43.1386 38.204 43.0688C38.2013 43.0655 38.1985 43.0623 38.1957 43.0591L35.0693 39.4667L39.4513 35.0846L43.0392 38.2142C43.0419 38.2166 43.0446 38.2189 43.0475 38.2213C43.316 38.4497 43.5543 38.7239 43.7565 39.0372C44.4064 40.0414 44.452 41.4147 43.8702 42.454Z" fill="#295C7A"/>
<path d="M18.1979 10.9062C17.8622 10.5706 17.3182 10.5706 16.9826 10.9062L13.3364 14.5524C13.0008 14.8879 13.0008 15.4321 13.3364 15.7676C13.5042 15.9354 13.7242 16.0193 13.9441 16.0193C14.164 16.0193 14.3839 15.9353 14.5517 15.7676L18.1979 12.1214C18.5335 11.7859 18.5335 11.2419 18.1979 10.9062Z" fill="#295C7A"/>
</g>
<defs>
<clipPath id="clip0_1030_12">
<rect width="44" height="44" fill="white" transform="translate(2 2)"/>
</clipPath>
</defs>
</svg>
