<svg width="24" height="24" viewBox="0 0 24 24" fill="none" xmlns="http://www.w3.org/2000/svg">
<g clip-path="url(#clip0_1041_71)">
<path d="M18.8481 12.3517C18.7367 12.2402 18.6045 12.1517 18.4589 12.0913C18.3133 12.031 18.1573 11.9999 17.9997 11.9999C17.8421 11.9999 17.686 12.031 17.5405 12.0913C17.3949 12.1517 17.2626 12.2402 17.1513 12.3517L15.2385 14.2645C14.3517 14.0005 12.6969 13.4005 11.6482 12.3517C10.5994 11.3029 9.99938 9.64814 9.73538 8.76135L11.6482 6.84857C11.7597 6.73723 11.8482 6.60498 11.9085 6.45941C11.9689 6.31383 12 6.15778 12 6.00018C12 5.84258 11.9689 5.68653 11.9085 5.54095C11.8482 5.39538 11.7597 5.26313 11.6482 5.15179L6.84821 0.351838C6.73686 0.240304 6.60462 0.151819 6.45904 0.0914472C6.31347 0.031075 6.15741 0 5.99982 0C5.84222 0 5.68616 0.031075 5.54059 0.0914472C5.39501 0.151819 5.26277 0.240304 5.15142 0.351838L1.89706 3.60621C1.44106 4.0622 1.18426 4.68859 1.19386 5.32819C1.22146 7.03697 1.67386 12.9721 6.35141 17.6497C11.029 22.3272 16.9641 22.7784 18.6741 22.8072H18.7077C19.3413 22.8072 19.9401 22.5576 20.3937 22.104L23.648 18.8497C23.7596 18.7383 23.8481 18.6061 23.9084 18.4605C23.9688 18.3149 23.9999 18.1589 23.9999 18.0013C23.9999 17.8437 23.9688 17.6876 23.9084 17.542C23.8481 17.3965 23.7596 17.2642 23.648 17.1529L18.8481 12.3517ZM18.6957 20.406C17.1981 20.3808 12.0742 19.9788 8.04819 15.9517C4.00904 11.9125 3.61784 6.77057 3.59384 5.30299L5.99982 2.89701L9.10298 6.00018L7.5514 7.55177C7.41036 7.6927 7.30665 7.86657 7.24967 8.05764C7.19268 8.24872 7.1842 8.45098 7.225 8.64615C7.2538 8.78415 7.9582 12.0565 9.95018 14.0485C11.9422 16.0405 15.2145 16.7449 15.3525 16.7737C15.5476 16.8156 15.75 16.8078 15.9413 16.751C16.1325 16.6942 16.3064 16.5901 16.4469 16.4485L17.9997 14.8969L21.1029 18.0001L18.6957 20.406Z" fill="#8EC2F2"/>
</g>
<defs>
<clipPath id="clip0_1041_71">
<rect width="24" height="24" fill="white"/>
</clipPath>
</defs>
</svg>
