<svg width="24" height="20" viewBox="0 0 24 20" fill="none" xmlns="http://www.w3.org/2000/svg">
<g clip-path="url(#clip0_1041_29)">
<path d="M24.0004 2.3478C23.1188 2.73374 22.1594 3.0115 21.1711 3.11968C22.1971 2.50111 22.9655 1.52388 23.332 0.371331C22.3692 0.952545 21.3145 1.3601 20.2146 1.57592C19.7549 1.07721 19.1989 0.679905 18.5813 0.408777C17.9636 0.137649 17.2976 -0.00149634 16.6247 1.21348e-05C13.902 1.21348e-05 11.7123 2.23962 11.7123 4.98797C11.7123 5.3739 11.7584 5.75984 11.8333 6.13116C7.7565 5.9148 4.12048 3.93833 1.7032 0.912229C1.26274 1.67567 1.03193 2.54494 1.03477 3.4296C1.03477 5.16047 1.902 6.68668 3.22444 7.58427C2.44511 7.55313 1.68402 7.33575 1.00308 6.94982V7.01122C1.00308 9.43502 2.69143 11.4437 4.94161 11.9056C4.51912 12.017 4.08449 12.0739 3.64797 12.0752C3.32817 12.0752 3.02565 12.043 2.72024 11.9992C3.34257 13.9756 5.15482 15.4112 7.3128 15.458C5.62444 16.8 3.50968 17.5894 1.2134 17.5894C0.801397 17.5894 0.421085 17.5748 0.0263672 17.528C2.20452 18.9461 4.78891 19.7647 7.5721 19.7647C16.6074 19.7647 21.5514 12.1687 21.5514 5.57564C21.5514 5.35928 21.5514 5.14293 21.537 4.92657C22.4936 4.21609 23.332 3.33604 24.0004 2.3478Z" fill="#21A6DF"/>
</g>
<defs>
<clipPath id="clip0_1041_29">
<rect width="24" height="19.7647" fill="white"/>
</clipPath>
</defs>
</svg>
