<svg width="24" height="18" viewBox="0 0 24 18" fill="none" xmlns="http://www.w3.org/2000/svg">
<g clip-path="url(#clip0_1041_31)">
<path d="M23.4699 2.77383C23.3335 2.24086 23.0663 1.75493 22.6951 1.36465C22.324 0.974377 21.8619 0.693454 21.355 0.549997C19.4884 0.018799 11.9879 0.0187988 11.9879 0.0187988C11.9879 0.0187988 4.48729 0.018799 2.62071 0.549997C2.11385 0.693454 1.65172 0.974377 1.28057 1.36465C0.90941 1.75493 0.642248 2.24086 0.50582 2.77383C0.157288 4.77551 -0.0118455 6.80717 0.000644257 8.84209C-0.0118455 10.877 0.157288 12.9087 0.50582 14.9104C0.642248 15.4433 0.90941 15.9293 1.28057 16.3195C1.65172 16.7098 2.11385 16.9907 2.62071 17.1342C4.48729 17.6654 11.9879 17.6654 11.9879 17.6654C11.9879 17.6654 19.4884 17.6654 21.355 17.1342C21.8619 16.9907 22.324 16.7098 22.6951 16.3195C23.0663 15.9293 23.3335 15.4433 23.4699 14.9104C23.8184 12.9087 23.9876 10.877 23.9751 8.84209C23.9876 6.80717 23.8184 4.77551 23.4699 2.77383ZM9.59041 12.6235V5.06068L15.8152 8.84209L9.59041 12.6235Z" fill="#E42F08"/>
</g>
<defs>
<clipPath id="clip0_1041_31">
<rect width="24" height="17.6842" fill="white"/>
</clipPath>
</defs>
</svg>
