<svg width="24" height="26" viewBox="0 0 24 26" fill="none" xmlns="http://www.w3.org/2000/svg">
<g clip-path="url(#clip0_1041_80)">
<path d="M23.71 1.3417C23.575 1.202 23.4045 1.10528 23.2185 1.06291C23.0325 1.02053 22.8388 1.03427 22.66 1.1025L0.660001 9.4225C0.470269 9.49735 0.306921 9.63045 0.191652 9.80413C0.0763829 9.97782 0.0146484 10.1839 0.0146484 10.3949C0.0146484 10.6059 0.0763829 10.812 0.191652 10.9857C0.306921 11.1594 0.470269 11.2925 0.660001 11.3673L10.26 15.3609L14.1 25.3449C14.1721 25.5336 14.2958 25.6961 14.4557 25.8125C14.6157 25.929 14.8049 25.9942 15 26.0001C15.2021 25.9958 15.3982 25.9279 15.5624 25.8054C15.7266 25.6828 15.8513 25.5114 15.92 25.3137L23.92 2.4337C23.9881 2.2497 24.0046 2.04935 23.9674 1.85601C23.9302 1.66266 23.8409 1.4843 23.71 1.3417ZM15 22.0481L12.21 14.7681L17 9.7865L15.59 8.3201L10.76 13.3433L3.8 10.4001L21.33 3.8169L15 22.0481Z" fill="#8EC2F2"/>
</g>
<defs>
<clipPath id="clip0_1041_80">
<rect width="24" height="26" fill="white"/>
</clipPath>
</defs>
</svg>
